<?xml version="1.0" standalone="no"?>
<!DOCTYPE svg PUBLIC "-//W3C//DTD SVG 20010904//EN"
 "http://www.w3.org/TR/2001/REC-SVG-20010904/DTD/svg10.dtd">
<svg version="1.0" xmlns="http://www.w3.org/2000/svg"
 width="1080.000000pt" height="720.000000pt" viewBox="0 0 1080.000000 720.000000"
 preserveAspectRatio="xMidYMid meet">
<metadata>
Created by potrace 1.16, written by Peter Selinger 2001-2019
</metadata>
<g transform="translate(0.000000,720.000000) scale(0.100000,-0.100000)"
fill="#000000" stroke="none">
<path d="M2720 5843 c-30 -21 -67 -45 -81 -52 -27 -13 -47 -42 -50 -71 -6 -57
2 -74 68 -138 65 -62 68 -67 68 -111 0 -25 -4 -58 -9 -73 -7 -26 -6 -28 18
-28 15 0 39 6 55 14 35 18 127 23 261 12 152 -12 275 5 430 60 134 47 173 69
178 101 4 28 -34 50 -127 73 -43 11 -95 27 -115 35 -20 9 -70 23 -111 31 -76
16 -300 91 -358 120 -18 9 -42 25 -54 37 -14 12 -41 22 -70 24 -43 4 -54 1
-103 -34z"/>
<path d="M4055 5599 c-45 -9 -85 -32 -85 -49 0 -3 34 -46 75 -94 41 -48 75
-92 75 -97 0 -20 -34 -21 -72 -1 -47 23 -86 17 -125 -20 -38 -35 -50 -76 -62
-205 -10 -111 -9 -127 14 -243 28 -143 32 -248 10 -289 -8 -16 -34 -44 -57
-62 -24 -18 -71 -59 -105 -90 -67 -62 -64 -60 -167 -84 -134 -30 -248 -124
-309 -252 -43 -92 -42 -150 7 -303 24 -75 40 -152 47 -220 8 -79 18 -123 41
-175 44 -101 44 -194 -1 -372 -33 -132 -33 -132 -14 -165 11 -20 40 -43 74
-60 65 -33 91 -70 67 -94 -8 -8 -45 -19 -82 -25 -97 -13 -176 -59 -176 -100 0
-26 22 -34 125 -49 102 -14 147 -6 226 38 l46 26 97 -19 c54 -10 104 -24 112
-33 28 -27 -6 -83 -93 -151 -29 -22 -57 -50 -63 -61 -29 -54 39 -100 147 -100
85 0 103 -12 144 -93 17 -34 39 -72 51 -84 26 -28 103 -61 153 -65 22 -2 46
-7 53 -12 18 -11 14 -70 -6 -92 -10 -10 -34 -46 -53 -78 -53 -91 -106 -94
-227 -13 -37 24 -78 50 -91 57 -46 24 -196 159 -284 255 -90 99 -133 170 -161
267 -19 65 -29 73 -108 83 -51 6 -128 -7 -128 -22 0 -24 184 -245 239 -286 39
-30 53 -49 62 -80 13 -49 5 -112 -20 -153 -40 -66 -131 -152 -201 -188 -127
-67 -160 -109 -160 -208 0 -61 -27 -128 -61 -152 -13 -8 -86 -36 -164 -60
-176 -57 -215 -91 -215 -195 0 -20 -10 -57 -22 -81 -22 -43 -31 -49 -177 -121
-90 -45 -165 -88 -179 -105 -23 -26 -24 -33 -18 -112 6 -73 5 -89 -14 -127
-12 -24 -38 -56 -58 -72 -20 -15 -63 -52 -95 -81 -71 -65 -154 -105 -262 -127
-117 -24 -132 -35 -191 -151 -28 -54 -54 -111 -58 -126 l-6 -28 1715 0 1715 0
0 25 c0 40 37 103 71 121 58 29 111 -15 125 -104 l7 -42 2808 0 2809 0 0 198
c0 187 -1 200 -20 217 -24 22 -133 196 -155 248 -8 20 -27 87 -41 149 -15 62
-41 146 -60 186 -43 93 -148 244 -240 345 -102 110 -203 247 -255 347 -68 128
-163 253 -252 333 -44 40 -114 107 -156 150 -120 125 -376 356 -468 424 -46
34 -126 86 -176 114 -51 28 -127 76 -169 106 -42 29 -103 66 -135 81 -57 27
-61 27 -268 28 -186 0 -215 2 -250 19 -32 15 -62 19 -145 19 -100 0 -109 -1
-195 -38 -136 -59 -161 -57 -330 29 -123 63 -143 70 -195 70 -50 0 -64 -5
-114 -39 -101 -69 -137 -74 -311 -36 -22 4 -74 11 -115 15 -120 11 -301 50
-360 78 -89 42 -125 86 -200 242 -37 77 -82 175 -100 218 -43 105 -84 156
-150 190 -48 24 -68 28 -155 30 -90 2 -107 -1 -170 -27 -38 -15 -76 -33 -84
-39 -10 -9 -18 -6 -32 12 -23 28 -25 87 -5 153 14 43 13 49 -3 70 -47 59 -33
127 40 193 38 34 47 51 71 130 40 134 43 165 21 216 -37 83 -134 244 -161 266
-38 32 -101 31 -140 -2 -35 -29 -74 -32 -133 -9 -55 23 -222 208 -245 273 -9
25 -40 98 -69 161 -29 63 -61 132 -70 153 -22 47 -179 195 -247 232 -28 15
-105 43 -172 62 -133 38 -248 49 -331 32z m707 -1061 c81 -81 156 -178 174
-223 15 -41 16 -59 6 -168 -6 -67 -8 -174 -5 -238 7 -142 -1 -164 -56 -156
-21 2 -59 14 -85 25 -54 25 -77 65 -97 173 -11 60 -10 72 11 140 30 100 25
238 -13 326 -36 83 -41 111 -22 139 22 34 38 30 87 -18z m-385 -518 c46 -28
80 -85 93 -157 6 -35 20 -82 30 -105 26 -56 25 -99 -1 -129 -12 -13 -47 -60
-79 -104 -32 -44 -81 -99 -109 -123 -28 -24 -60 -61 -71 -81 -24 -48 -70 -87
-119 -102 -61 -18 -102 7 -141 86 -28 56 -38 66 -93 95 -154 81 -197 134 -218
271 -16 102 -7 157 36 207 50 57 102 79 238 96 64 9 127 20 138 27 33 17 139
37 204 38 43 1 69 -5 92 -19z m1178 -471 c58 -114 52 -185 -14 -177 -56 6
-113 187 -77 243 24 37 49 19 91 -66z m-900 -1863 c28 -13 105 -64 172 -114
165 -125 210 -147 293 -146 65 1 95 11 175 59 48 29 118 42 150 27 30 -14 49
-80 41 -142 -9 -64 -140 -457 -164 -489 -10 -14 -31 -33 -45 -41 -24 -13 -30
-13 -61 4 -19 10 -57 46 -85 81 -27 35 -94 97 -148 138 -100 77 -101 78 -381
429 -123 154 -137 194 -80 218 29 11 70 4 133 -24z m529 -978 c25 -46 19 -112
-10 -116 -40 -6 -87 86 -64 127 17 33 54 27 74 -11z m-34 -278 c0 -19 -20 -27
-33 -13 -8 7 11 33 24 33 5 0 9 -9 9 -20z"/>
<path d="M2689 3877 c-23 -15 -37 -35 -43 -59 -8 -32 -6 -42 17 -77 31 -47 34
-84 11 -141 -31 -78 9 -116 101 -99 22 5 65 8 95 9 135 1 193 97 132 215 -24
48 -121 146 -159 162 -50 20 -115 17 -154 -10z"/>
</g>
</svg>
